<?xml version="1.0" standalone="no"?>
<!DOCTYPE svg PUBLIC "-//W3C//DTD SVG 20010904//EN"
 "http://www.w3.org/TR/2001/REC-SVG-20010904/DTD/svg10.dtd">
<svg version="1.0" xmlns="http://www.w3.org/2000/svg"
 width="700.000000pt" height="700.000000pt" viewBox="0 0 700.000000 700.000000"
 preserveAspectRatio="xMidYMid meet">
<metadata>
Created by potrace 1.14, written by Peter Selinger 2001-2017
</metadata>
<g transform="translate(0.000000,700.000000) scale(0.100000,-0.100000)"
fill="#000000" stroke="none">
<path d="M3157 6753 c-2 -1 -68 -3 -147 -4 -284 -4 -320 -34 -325 -274 -2 -98
1 -137 21 -215 37 -149 39 -144 -71 -155 -82 -9 -118 -21 -146 -51 -24 -25
-24 -28 -24 -239 0 -199 1 -214 20 -235 29 -32 62 -47 123 -55 l53 -7 -3 -358
c-4 -403 3 -368 -92 -469 -28 -30 -167 -172 -309 -315 -564 -569 -575 -580
-757 -821 -179 -237 -282 -414 -364 -627 -66 -173 -99 -293 -111 -413 -3 -27
-8 -68 -10 -90 -11 -97 -4 -396 10 -489 4 -23 9 -54 11 -71 32 -214 183 -525
363 -747 162 -201 343 -334 626 -458 11 -5 65 -23 120 -40 187 -59 437 -70
669 -29 68 12 78 5 66 -47 -13 -57 -70 -190 -91 -212 -18 -20 -33 -25 -130
-37 -48 -6 -81 -31 -93 -72 -10 -31 17 -85 52 -105 28 -17 86 -18 884 -15 682
2 858 5 879 16 50 25 64 99 29 144 -21 26 -41 32 -127 40 -24 3 -49 10 -57 16
-18 15 -64 119 -86 196 -24 85 -18 91 86 71 97 -18 399 -18 504 0 299 52 639
253 860 509 116 134 236 334 296 490 30 79 73 218 80 255 2 14 6 34 9 45 16
71 24 405 15 574 -13 225 -135 561 -307 846 -77 126 -248 361 -303 415 -9 8
-28 31 -44 50 -105 129 -302 330 -738 755 -207 202 -233 235 -242 311 -5 35
-8 357 -7 600 1 91 1 91 26 89 26 -3 87 13 122 33 47 26 53 59 54 269 0 193
-8 221 -73 254 -31 16 -63 23 -118 25 -41 1 -79 3 -83 3 -10 1 -3 49 18 115 8
26 18 69 22 95 9 59 9 235 0 285 -15 82 -76 131 -177 142 -56 5 -978 12 -983
7z m941 -239 l44 -49 -5 -90 c-5 -89 -32 -232 -47 -248 -11 -13 -135 -16 -630
-16 -451 0 -526 2 -537 12 -8 8 -42 144 -49 196 -16 118 -9 148 50 206 l32 30
424 3 c233 2 425 4 426 5 1 1 58 1 126 1 l123 -2 43 -48z m240 -618 c1 -2 5
-49 7 -105 4 -99 4 -101 -18 -102 -115 -4 -150 -8 -157 -15 -18 -18 -31 -672
-16 -790 16 -136 40 -211 87 -282 18 -26 197 -211 398 -412 399 -398 466 -467
621 -646 317 -365 507 -761 546 -1134 41 -391 -66 -787 -293 -1090 -69 -94
-255 -276 -348 -342 -218 -154 -431 -221 -705 -221 -192 -1 -326 33 -497 124
-61 32 -114 59 -117 59 -3 0 -4 -6 -1 -12 2 -7 6 -31 9 -53 2 -22 17 -96 31
-165 33 -159 31 -150 44 -182 6 -16 9 -28 7 -28 -2 0 4 -28 15 -62 10 -35 19
-77 19 -95 l0 -31 -62 -4 c-35 -2 -240 -4 -456 -3 -375 0 -394 1 -407 19 -8
10 -12 22 -10 26 2 4 7 22 10 41 3 19 19 84 35 144 16 61 32 126 35 145 3 19
8 43 11 52 6 20 10 40 18 98 4 25 9 57 12 73 8 37 -12 35 -78 -7 -106 -67
-249 -116 -395 -136 -70 -9 -270 -6 -333 5 -414 73 -774 354 -988 772 -41 81
-116 275 -126 328 -4 19 -28 160 -36 208 -16 99 -3 345 24 483 45 226 155 486
292 689 37 55 70 102 73 105 3 3 19 23 36 45 113 155 308 365 760 820 313 316
380 387 412 442 49 83 52 123 53 590 0 407 -1 433 -17 434 -25 2 -113 7 -144
8 l-25 1 2 98 c1 53 3 102 3 108 1 8 240 10 833 7 458 -2 834 -5 836 -7z"/>
<path d="M3094 5678 c-6 -10 -10 -123 -19 -543 -7 -326 -10 -380 -30 -459 -17
-66 -82 -205 -117 -251 -13 -16 -201 -208 -418 -425 -414 -413 -561 -571 -693
-740 -7 -8 -26 -33 -43 -55 -98 -126 -203 -306 -255 -438 -83 -207 -121 -481
-96 -697 17 -147 85 -351 164 -488 241 -417 646 -648 1051 -599 171 21 374
119 469 227 12 14 34 39 49 55 31 35 75 125 68 137 -3 5 -19 -1 -35 -12 -42
-30 -166 -85 -224 -100 -121 -29 -328 -14 -440 32 -152 64 -340 239 -427 398
-37 67 -65 148 -72 210 -9 68 -9 341 -1 395 9 60 64 214 91 257 13 21 24 40
24 43 0 20 190 279 276 375 42 47 146 162 159 176 5 6 42 46 81 90 40 43 84
93 99 109 166 180 218 237 256 279 24 28 51 57 59 66 8 8 35 40 60 69 25 29
53 63 64 75 42 48 143 184 192 260 96 146 105 157 117 153 7 -2 44 -52 84
-110 68 -101 173 -243 226 -304 14 -15 55 -64 93 -108 60 -70 108 -124 164
-185 8 -9 56 -61 105 -115 50 -55 99 -109 110 -121 11 -11 56 -60 100 -109 44
-48 101 -111 126 -139 370 -406 475 -607 484 -926 5 -183 -11 -276 -73 -410
-58 -125 -173 -263 -280 -336 -31 -21 -59 -42 -62 -46 -11 -14 -117 -58 -175
-71 -70 -16 -297 -20 -370 -6 -51 9 -163 60 -222 99 l-32 21 9 -31 c37 -128
212 -286 390 -350 193 -71 337 -75 548 -14 351 101 664 412 791 782 55 161 65
227 65 427 1 217 -18 334 -81 505 -80 217 -242 468 -451 700 -177 195 -240
259 -761 774 -217 214 -239 244 -309 414 -41 100 -37 43 -46 661 -3 217 -8
396 -10 398 -9 9 -827 9 -832 1z"/>
<path d="M3444 3738 c-33 -35 -100 -108 -150 -163 -49 -55 -91 -102 -94 -105
-3 -3 -50 -54 -105 -115 -55 -60 -104 -115 -110 -121 -15 -16 -187 -204 -213
-233 -77 -84 -164 -181 -193 -216 -19 -22 -37 -42 -40 -45 -17 -14 -124 -180
-155 -242 -46 -92 -64 -181 -65 -322 0 -136 6 -175 39 -241 34 -69 67 -111
130 -172 65 -61 128 -97 207 -118 58 -15 197 -21 245 -11 14 3 39 8 55 12 17
3 68 25 114 47 67 32 102 58 166 122 95 94 141 174 180 314 14 52 31 103 36
114 14 25 32 17 36 -19 15 -120 117 -324 210 -418 84 -86 250 -168 368 -181
33 -4 62 -8 65 -8 3 -1 28 3 55 8 150 25 246 75 347 180 40 41 106 178 118
245 12 60 15 172 6 211 -3 13 -8 37 -10 52 -12 73 -55 185 -99 262 -69 118
-215 289 -579 677 -61 65 -118 126 -127 137 -9 10 -53 58 -97 107 -45 49 -96
107 -115 129 -19 22 -39 45 -45 50 -6 6 -32 36 -58 68 -27 31 -51 57 -55 57
-4 0 -34 -28 -67 -62z"/>
<path d="M3487 1783 c-3 -5 -7 -24 -10 -43 -9 -54 -15 -136 -32 -405 -4 -55
-8 -107 -10 -115 -2 -8 -7 -42 -11 -75 -6 -59 -8 -74 -19 -125 -2 -14 -7 -41
-10 -60 -5 -31 -42 -230 -50 -270 -2 -8 -10 -43 -18 -77 -11 -44 -12 -65 -5
-70 15 -9 305 -12 337 -4 14 4 27 15 29 24 2 10 -8 66 -22 125 -20 89 -41 202
-71 392 -8 53 -25 188 -31 250 -3 36 -7 76 -9 89 -3 13 -7 94 -11 180 -3 86
-10 164 -16 174 -9 17 -33 23 -41 10z"/>
</g>
</svg>
