<?xml version="1.0" standalone="no"?>
<!DOCTYPE svg PUBLIC "-//W3C//DTD SVG 20010904//EN"
 "http://www.w3.org/TR/2001/REC-SVG-20010904/DTD/svg10.dtd">
<svg version="1.0" xmlns="http://www.w3.org/2000/svg"
 width="700.000000pt" height="700.000000pt" viewBox="0 0 700.000000 700.000000"
 preserveAspectRatio="xMidYMid meet">
<metadata>
Created by potrace 1.14, written by Peter Selinger 2001-2017
</metadata>
<g transform="translate(0.000000,700.000000) scale(0.100000,-0.100000)"
fill="#000000" stroke="none">
<path d="M2847 6749 c-69 -11 -124 -50 -150 -107 -18 -40 -21 -66 -20 -177 0
-91 5 -149 17 -195 18 -63 22 -83 33 -126 5 -21 2 -22 -112 -25 -114 -4 -117
-5 -142 -33 l-24 -29 3 -248 c4 -297 -2 -283 116 -284 43 -1 82 -4 88 -7 5 -4
9 -143 8 -350 0 -328 -1 -345 -22 -391 -17 -37 -117 -143 -479 -505 -253 -251
-475 -475 -494 -497 -30 -34 -139 -169 -161 -200 -4 -5 -18 -23 -32 -40 -54
-68 -196 -297 -248 -400 -96 -189 -164 -394 -198 -593 -41 -237 -45 -459 -10
-617 5 -22 11 -51 13 -65 22 -120 102 -332 174 -462 240 -434 613 -718 1073
-815 130 -27 376 -24 544 8 27 5 51 7 54 5 2 -3 -4 -31 -13 -63 -9 -32 -17
-58 -17 -58 0 0 -12 -36 -26 -80 l-27 -80 -45 -2 c-25 -1 -63 -2 -86 -2 -105
-2 -143 -142 -53 -195 29 -17 82 -18 889 -18 799 0 861 2 889 18 53 31 66 94
31 151 -23 38 -42 44 -141 46 l-73 2 -13 35 c-6 19 -27 83 -46 142 l-34 108
26 -5 c14 -3 51 -8 81 -11 30 -3 77 -9 105 -14 83 -13 312 -5 400 14 486 106
873 415 1100 881 80 164 130 311 151 443 3 20 8 40 10 43 2 3 7 42 11 85 40
448 -98 944 -379 1363 -176 261 -287 385 -778 873 -239 237 -445 445 -458 462
-42 56 -46 94 -46 448 -1 294 1 338 14 339 8 1 42 2 75 4 33 1 68 3 78 3 10 1
24 17 33 38 12 29 14 79 12 270 -4 294 5 281 -190 285 -48 1 -88 5 -88 8 0 4
12 52 26 106 23 84 27 121 27 235 0 119 -2 140 -21 177 -22 42 -57 73 -108 94
-33 14 -1261 21 -1347 8z m1225 -213 c40 -26 59 -77 59 -155 0 -37 -4 -78 -9
-92 -5 -13 -10 -28 -10 -34 -1 -5 -9 -38 -18 -71 l-16 -62 -127 -2 c-162 -3
-659 -3 -864 -1 l-159 2 -14 35 c-22 52 -45 172 -45 236 -1 55 19 116 44 137
28 23 106 26 605 25 484 0 529 -2 554 -18z m257 -640 c16 -10 12 -183 -5 -197
-9 -7 -49 -13 -97 -13 l-82 -1 1 -455 c0 -435 1 -458 21 -512 12 -31 36 -78
54 -105 18 -26 223 -237 455 -468 536 -535 626 -633 755 -825 78 -117 80 -120
144 -250 100 -200 185 -484 211 -700 3 -30 10 -77 14 -105 22 -144 -19 -401
-96 -592 -198 -492 -576 -815 -1061 -906 -209 -39 -569 36 -765 159 -46 30
-50 30 -39 2 5 -13 11 -41 14 -64 3 -22 13 -71 21 -110 9 -38 32 -145 51 -239
20 -93 38 -177 41 -186 4 -16 -34 -17 -464 -16 l-469 0 13 66 c13 64 62 298
70 333 10 44 32 152 40 193 3 16 8 33 11 38 3 5 -28 -9 -68 -30 -228 -122
-531 -182 -736 -147 -253 44 -470 150 -667 325 -214 191 -378 461 -455 749
-53 197 -58 345 -21 565 86 509 255 853 606 1236 37 41 260 265 495 500 252
251 441 447 462 480 71 111 70 104 74 609 l4 455 -87 2 c-48 2 -93 8 -100 14
-10 8 -13 38 -13 101 0 78 3 90 19 96 23 9 1635 6 1649 -2z"/>
<path d="M3089 5677 c-3 -4 -8 -230 -13 -542 -4 -297 -6 -327 -29 -415 -54
-210 -113 -303 -319 -506 -652 -642 -765 -761 -939 -989 -155 -202 -292 -463
-339 -644 -52 -199 -50 -431 4 -666 108 -467 415 -789 866 -912 163 -44 363
-32 528 33 116 46 233 134 310 234 27 35 84 140 76 140 -3 0 -32 -15 -63 -33
-138 -81 -239 -110 -374 -109 -137 1 -231 35 -402 146 -203 133 -315 288 -358
498 -9 42 -15 137 -15 260 -1 175 1 199 22 263 44 136 160 326 302 495 108
128 181 212 269 305 56 61 117 126 135 145 18 19 92 98 165 175 73 77 144 153
158 168 159 175 219 250 341 430 44 64 83 117 87 117 4 0 30 -35 58 -77 136
-209 260 -361 496 -607 58 -60 282 -298 342 -362 310 -336 493 -592 559 -784
16 -47 19 -85 19 -260 0 -221 -4 -263 -36 -361 -47 -144 -142 -268 -286 -372
-102 -73 -253 -152 -318 -167 -63 -15 -231 -15 -267 -1 -16 6 -28 8 -28 6 0
-12 -146 52 -221 97 -25 16 -50 28 -54 28 -4 0 8 -26 25 -57 127 -228 355
-360 651 -377 196 -12 474 85 664 229 312 237 489 642 480 1095 -1 80 -6 159
-9 175 -65 290 -194 539 -433 835 -164 203 -268 311 -870 903 -84 82 -169 174
-189 204 -53 79 -103 196 -131 303 -23 89 -25 115 -29 415 -3 176 -6 370 -7
430 l-3 110 -412 2 c-226 2 -413 2 -413 0z"/>
<path d="M3453 3773 c-22 -27 -51 -60 -64 -74 -13 -14 -58 -63 -99 -109 -41
-47 -91 -102 -110 -123 -51 -57 -72 -80 -105 -118 -78 -89 -184 -208 -221
-249 -23 -25 -57 -63 -75 -84 -19 -22 -45 -52 -59 -66 -34 -36 -129 -144 -180
-205 -93 -112 -182 -294 -216 -440 -21 -91 -21 -225 -1 -291 59 -196 214 -337
417 -380 130 -27 229 -15 349 45 192 95 277 200 371 456 34 93 50 122 50 92 0
-41 104 -283 149 -347 59 -84 200 -187 316 -232 96 -36 265 -31 373 11 222 88
358 293 345 521 -5 85 -38 218 -76 305 -60 135 -120 223 -266 385 -37 41 -83
93 -102 115 -18 22 -43 49 -54 60 -11 11 -47 51 -80 90 -33 38 -67 76 -75 85
-18 19 -147 164 -173 194 -10 12 -46 52 -80 90 -34 38 -69 77 -77 86 -8 9 -46
52 -85 95 -38 42 -81 90 -94 106 -13 16 -27 29 -31 29 -3 0 -25 -21 -47 -47z"/>
<path d="M3482 1787 c-6 -6 -13 -74 -16 -150 -4 -76 -9 -159 -11 -185 -9 -99
-17 -176 -20 -196 -2 -12 -6 -43 -10 -71 -3 -27 -9 -75 -15 -105 -5 -30 -11
-71 -14 -90 -3 -19 -12 -71 -21 -115 -8 -44 -18 -96 -21 -115 -3 -19 -14 -71
-25 -115 -10 -44 -19 -87 -19 -95 0 -13 26 -15 177 -14 98 1 184 2 192 3 9 1
12 9 8 29 -39 181 -58 274 -62 307 -3 22 -8 47 -10 55 -5 19 -14 69 -30 180
-12 81 -14 94 -20 150 -3 30 -8 66 -10 80 -2 14 -7 68 -11 120 -3 52 -7 118
-9 145 -2 28 -4 78 -4 112 -1 50 -5 64 -20 72 -13 8 -22 7 -29 -2z"/>
</g>
</svg>
